PathFileType	4	(X/Y/Z)	Run_500 04
DataRate	CameraRate	NumFrames	NumMarkers	Units	OrigDataRate	OrigDataStartFrame	OrigNumFrames
100	100	4	41	mm	100	8	125
Frame#	Time	RASI			RPSI			RTH1			RTH2			RTH3			LTH1			LTH2			LTH3			RTB1			RTB2			RTB3			LTB1			LTB2			LTB3			RCAL			RTOE			RMT5			LCAL			LTOE			LACR			RACR			CLAV			C7			RUA1			RUA2			RUA3			RLEL			RMEL			LUA1			LUA2			LUA3			LLEL			LMEL			RFAsuperior			RFAradius			RFAulna			LFAsuperior			LFAradius			LFAulna			LPSI			LASI			
		X1	Y1	Z1	X2	Y2	Z2	X3	Y3	Z3	X4	Y4	Z4	X5	Y5	Z5	X6	Y6	Z6	X7	Y7	Z7	X8	Y8	Z8	X9	Y9	Z9	X10	Y10	Z10	X11	Y11	Z11	X12	Y12	Z12	X13	Y13	Z13	X14	Y14	Z14	X15	Y15	Z15	X16	Y16	Z16	X17	Y17	Z17	X18	Y18	Z18	X19	Y19	Z19	X20	Y20	Z20	X21	Y21	Z21	X22	Y22	Z22	X23	Y23	Z23	X24	Y24	Z24	X25	Y25	Z25	X26	Y26	Z26	X27	Y27	Z27	X28	Y28	Z28	X29	Y29	Z29	X30	Y30	Z30	X31	Y31	Z31	X32	Y32	Z32	X33	Y33	Z33	X34	Y34	Z34	X35	Y35	Z35	X36	Y36	Z36	X37	Y37	Z37	X38	Y38	Z38	X39	Y39	Z39	X40	Y40	Z40	X41	Y41	Z41	

1	0.26	1105.480657	1007.795768	-297.838706	943.942673	1058.040066	-390.04267	1095.4161	855.1927460000001	-238.802084	1169.775357	777.726717	-246.457753	1163.427592	629.935445	-274.111743	1011.123825	838.019093	-602.377241	1006.918134	697.818269	-560.467265	887.118865	623.979975	-554.564769	1322.959019	417.411829	-360.773135	1316.875674	301.767844	-327.794585	1365.099687	250.756561	-395.800803	674.676385	448.443208	-471.164639	609.395853	470.110141	-517.521652	533.500691	443.654839	-462.432114	1305.801035	95.82886999999999	-408.261729	1504.814202	225.613299	-418.665711	1526.015774	188.960867	-349.426603	422.018977	543.669885	-465.54625	354.176662	320.209507	-417.681399	1192.524197	1531.585701	-533.302917	1123.403595	1495.006807	-225.41893	1190.55406	1440.369751	-347.951842	1100.056208	1543.18708	-400.779283	998.277286	1443.779061	-168.26182	946.852255	1472.273763	-208.86578	907.297785	1418.933266	-176.041057	828.293517	1386.99264	-170.332234	831.4603	1375.32448	-263.427598	1161.346741	1433.086349	-640.799391	1077.999463	1393.865019	-659.829494	1118.48028	1326.01589	-695.658565	1100.061664	1260.056498	-722.386897	1036.670553	1242.049021	-656.810432	886.3189640000001	1325.808237	-147.994073	1007.27334	1199.726536	-160.395623	949.405548	1163.69016	-142.739454	1173.663991	1232.78778	-678.330635	1276.572028	1228.410423	-533.781561	1286.596597	1163.058652	-561.700799	958.640639	1056.451624	-483.839732	1121.922102	979.064429	-545.077733	
2	0.27	1105.484238	1005.027506	-299.016522	944.259942	1053.76471	-391.69676	1093.546135	845.9979970000001	-238.157521	1164.447542	766.733873	-242.999967	1156.865271	622.343116	-275.663081	1015.166866	834.075992	-603.94974	1011.831375	694.30569	-565.048627	895.6339809999999	617.1140820000001	-557.678308	1313.07631	407.051524	-360.688941	1303.599825	291.119589	-328.168728	1351.231109	239.690817	-395.722164	685.9869169999999	450.107085	-475.555793	622.416309	479.296894	-520.1363229999999	544.984613	457.634926	-465.57271	1288.285033	86.954577	-410.288336	1490.849916	210.93577	-416.162415	1509.748926	172.777082	-347.128165	440.940748	567.404851	-462.637543	358.513953	346.80111	-426.379831	1191.848188	1524.959846	-536.263253	1125.891516	1488.621366	-225.154977	1190.949549	1434.870819	-349.027558	1100.574363	1538.323826	-400.39572	1002.956546	1434.313408	-164.562809	949.474283	1460.879975	-203.3321	912.927917	1406.50209	-168.81842	835.217025	1371.453479	-159.900238	835.197658	1359.633558	-253.239793	1155.823596	1429.258451	-641.689203	1071.392414	1391.580751	-658.362406	1109.909437	1322.650811	-696.178176	1089.438093	1257.18193	-722.834304	1026.210001	1240.828261	-656.1059770000001	896.134088	1311.852208	-139.655014	1019.506725	1189.328777	-155.919525	963.401425	1152.119623	-135.003136	1162.294	1223.915159	-682.1067870000001	1269.117906	1208.520065	-541.164325	1273.2564	1142.806053	-570.106093	959.100161	1051.651979	-485.700427	1123.659884	976.808168	-546.0014629999999	
3	0.28	1105.235964	1000.151941	-300.117122	944.8246820000001	1048.595864	-393.380036	1091.489461	836.135368	-236.810727	1160.391317	758.186449	-240.663581	1153.661027	615.2229129999999	-279.340149	1018.939159	829.089761	-605.301528	1019.309371	689.235193	-568.654036	906.148964	608.633778	-560.877891	1301.033837	393.872762	-360.448503	1285.413865	277.839427	-328.867509	1332.236826	225.066634	-395.709172	699.866184	450.09919	-480.550855	638.572139	486.070503	-523.332303	560.1601450000001	468.832844	-469.220299	1261.800856	80.81789000000001	-412.855773	1471.136444	188.326802	-411.464545	1484.650836	147.479001	-342.343695	463.127006	586.98626	-460.414012	369.276082	369.464181	-434.512077	1190.633783	1517.388388	-539.639496	1128.075982	1480.872188	-224.52514	1191.332064	1428.142851	-350.101879	1100.852631	1532.02496	-399.726611	1007.907641	1422.878291	-160.31332	952.263942	1447.410991	-197.009365	918.81313	1392.347175	-160.643678	842.949484	1354.027394	-148.459019	839.430259	1341.835772	-241.432687	1149.239608	1424.375733	-642.689756	1063.931967	1388.051068	-656.729482	1100.242661	1318.225831	-696.416105	1077.62825	1253.450302	-723.076785	1015.092732	1238.546538	-654.792453	906.652526	1296.232137	-130.373612	1032.741085	1177.702093	-151.172933	978.660408	1139.164858	-127.252555	1149.564893	1214.246196	-686.116227	1259.890219	1186.794207	-549.533843	1257.937271	1121.312199	-579.538384	959.237602	1046.281337	-487.18838	1125.034346	974.4276149999999	-547.385438	
4	0.29	1104.604731	993.881051	-300.64544	944.880908	1042.777127	-394.795198	1088.840992	827.488817	-236.302556	1156.908813	752.021856	-240.861109	1151.430721	607.588107	-282.910207	1022.257048	823.088421	-606.326159	1029.24405	682.607159	-571.826175	918.638921	598.769106	-564.518473	1287.997755	379.810624	-360.09051	1264.048991	264.208194	-330.399094	1310.055771	209.355078	-396.601624	716.2935220000001	448.295661	-485.575817	657.635449	490.071371	-526.741655	578.716625	477.01887	-472.967587	1229.045413	79.829706	-416.225701	1446.995887	159.239828	-406.904107	1452.855347	115.645377	-337.551422	487.81334	602.54227	-459.576738	386.123377	387.631889	-441.435757	1188.878231	1509.134023	-543.288057	1130.162132	1472.183402	-223.649479	1191.852914	1420.380609	-351.158306	1101.040851	1524.389287	-398.650125	1013.103432	1409.672473	-155.505637	955.0573460000001	1431.925431	-189.798298	924.995651	1376.450517	-151.559529	851.661068	1335.00151	-136.298772	844.286038	1322.320213	-228.450335	1141.719914	1418.254449	-643.7529929999999	1055.800223	1383.369126	-654.981841	1089.551375	1312.655138	-696.20554	1064.804296	1248.921818	-723.0961600000001	1004.077746	1235.27027	-653.192438	917.9026260000001	1279.274654	-120.420349	1046.821067	1164.920468	-146.314828	995.004043	1124.870441	-119.761109	1135.517728	1203.718433	-690.162872	1248.530734	1163.481292	-558.7577700000001	1240.610062	1098.920891	-589.96233	958.630628	1040.294914	-488.216735	1125.866334	971.396245	-548.974885	
